<svg id="Layer_1" data-name="Layer 1" xmlns="http://www.w3.org/2000/svg" viewBox="0 0 331 201"><defs><style>.cls-1{fill:#fff;}.cls-2{fill:#ffc000;}</style></defs><rect class="cls-1" x="31.33" y="62.31" width="87.62" height="21.66" transform="translate(-25.42 102.88) rotate(-60.71)"/><path class="cls-1" d="M61.42,119.06,43,109c1.6,4-.09,12.53-1.13,16.27l4.83,2.25A35,35,0,0,1,61.42,119.06Z"/><path class="cls-2" d="M46.17,128.81l-4.83-2.42-1.7,5.44h3.41Z"/><path class="cls-2" d="M305.22,166.92c71.89,8,72.11,17.31,86.53,25.11,6.66-19.72,18.24-60.11,11.32-64-8.65-4.82-55.91,3.09-114.49,4.81s-95.85-7.56-153.76-10C88.5,121,52.06,130.82,39.64,136c28.62-2.3,49.26-11.3,115.82,8.94C218.35,164,262.8,162.2,305.22,166.92Z"/></svg>