<svg id="Layer_1" data-name="Layer 1" xmlns="http://www.w3.org/2000/svg" width="704" height="642" viewBox="0 0 704 642">
  <defs>
    <style>
      .cls-1 {
        fill: #1f1f1d;
      }

      .cls-2 {
        fill: #fefefe;
      }

      .cls-3 {
        fill: #fdc014;
      }
    </style>
  </defs>
  <g>
    <path class="cls-1" d="M352,641.9q-174,0-347.91.1C.67,642,0,641.33,0,637.91Q.17,321,0,4.09C0,.67.67,0,4.09,0Q352,.15,699.91,0c3.42,0,4.09.67,4.09,4.09q-.16,316.91,0,633.82c0,3.42-.67,4.09-4.09,4.09Q526,641.84,352,641.9Zm16.32-34.67q126.69,0,253.38.1c4.63,0,6.12-.82,6.11-5.86q-.25-148.17-.13-296.35c0-3.15-.28-6.3-.2-9.45a254.88,254.88,0,0,0-11.36-83.58C597,151,560.43,103,506.36,68.82,448.58,32.33,385.51,21,318.55,33.62c-52.87,10-98.32,34.68-135.83,73.35Q113.6,178.24,109,277.61a16.36,16.36,0,0,1-1.47,6.69c-8,16.38-16.06,32.73-23.84,49.22C71.23,360,58.52,386.45,48.45,414c-4.24,11.61-2.79,13.55,9.64,15a252.89,252.89,0,0,0,45.37,1c4.56-.3,5.42,1,5.41,5.38q-.24,82.71-.11,165.42c0,6.44,0,6.44,6.69,6.44Z"/>
    <path class="cls-2" d="M368.32,607.23H115.45c-6.7,0-6.69,0-6.69-6.44q0-82.71.11-165.42c0-4.35-.85-5.68-5.41-5.38a252.89,252.89,0,0,1-45.37-1c-12.43-1.44-13.88-3.38-9.64-15,10.07-27.57,22.78-54,35.28-80.5,7.78-16.49,15.82-32.84,23.84-49.22a16.36,16.36,0,0,0,1.47-6.69Q113.67,178.4,182.72,107c37.51-38.67,83-63.4,135.83-73.35,67-12.6,130-1.29,187.81,35.2C560.43,103,597,151,616.12,212.09a254.88,254.88,0,0,1,11.36,83.58c-.08,3.15.2,6.3.2,9.45q0,148.19.13,296.35c0,5-1.48,5.87-6.11,5.86Q495,607.12,368.32,607.23ZM489,215.93l-.3-1.47c2.3.09,3.45-1.71,5.21-2.63,10.66-5.61,21.29-11.31,31.67-17.42,8.69-5.11,12.92-13.48,11.82-23.19s-6.33-18.25-18.23-21.5c-8.06-2.2-16.38-2.41-24.57-3.55-12.81-1.78-25.74-2.78-38.56-4.56-14.94-2.08-29.89-4.18-44.92-5.47-3.85-.33-5.39-1.55-4.94-5.48a299.24,299.24,0,0,0,1.8-34.4c0-3.29-1-4.25-4.21-4.21-13.83.15-27.66.19-41.48,0-3.73,0-4.32,1.42-4.33,4.67,0,9.15.31,18.31-.62,27.46-.36,3.46-1.56,4.52-5,4.25-5.14-.41-10.19-1.28-15.28-2-13.64-1.78-27.43-2.53-41-4.77-7.22-1.19-14.55-1.14-21.7-2.9-7.54-1.84-19.69,3.12-24.51,11.18-4.55,7.61-4.92,15.44-2.1,24.08-3-.68-5.42-2.74-7.51,1.21-6.58,12.42-13.58,24.62-20.59,36.8-1.28,2.22-1.42,2.86,1.16,4.31,16.86,9.45,33.55,19.22,50.64,29.09-1.36.89-2.25,2-3.8,2.71q-18.65,8.79-37.12,18c-12.75,6.34-19.12,21.14-11.65,33.66,15.89,26.66,39.84,41.67,70.93,44.22a96,96,0,0,0,29.76-1.74c9.67-2.26,19.14-4.88,27.28-10.58,3.28-2.31,5.8-2.21,9-.8,12.69,5.6,26.06,8.23,39.84,9.1,3.32.21,4.94-.52,4.6-4.29-.35-4,0-8-.15-12s.81-4.69,4.54-2.56c25.51,14.58,51.21,28.84,76.64,43.56,3.36,1.93,4.11.89,5.51-1.58,6.77-11.9,13.67-23.73,20.38-35.67,1.07-1.91,2-3.89-1.2-5.68-18.92-10.49-37.68-21.27-56.49-32-1.36-.78-3.65-1.55-3.44-3,.32-2.22,2.74-1.15,4.21-1.16q28.74-.12,57.47,0c3,0,4.58-.6,4.57-4q-.12-20.73.16-41.45c0-3.56-1.4-4.43-4.74-4.29C501.52,216.11,495.26,215.93,489,215.93Z"/>
    <path class="cls-3" d="M489,215.93c6.26,0,12.52.18,18.77-.07,3.34-.14,4.78.73,4.74,4.29q-.27,20.73-.16,41.45c0,3.45-1.53,4.06-4.57,4q-28.74-.13-57.47,0c-1.47,0-3.89-1.06-4.21,1.16-.21,1.42,2.08,2.19,3.44,3,18.81,10.7,37.57,21.48,56.49,32,3.24,1.79,2.27,3.77,1.2,5.68-6.71,11.94-13.61,23.77-20.38,35.67-1.4,2.47-2.15,3.51-5.51,1.58-25.43-14.72-51.13-29-76.64-43.56-3.73-2.13-4.65-1.32-4.54,2.56s-.2,8,.15,12c.34,3.77-1.28,4.5-4.6,4.29-13.78-.87-27.15-3.5-39.84-9.1-3.19-1.41-5.71-1.51-9,.8-8.14,5.7-17.61,8.32-27.28,10.58A96,96,0,0,1,289.84,324c-31.09-2.55-55-17.56-70.93-44.22-7.47-12.52-1.1-27.32,11.65-33.66q18.47-9.18,37.12-18c1.55-.73,2.44-1.82,3.8-2.71-17.09-9.87-33.78-19.64-50.64-29.09-2.58-1.45-2.44-2.09-1.16-4.31,7-12.18,14-24.38,20.59-36.8,2.09-3.95,4.5-1.89,7.51-1.21-2.82-8.64-2.45-16.47,2.1-24.08,4.82-8.06,17-13,24.51-11.18,7.15,1.76,14.48,1.71,21.7,2.9,13.56,2.24,27.35,3,41,4.77,5.09.67,10.14,1.54,15.28,2,3.42.27,4.62-.79,5-4.25.93-9.15.59-18.31.62-27.46,0-3.25.6-4.72,4.33-4.67,13.82.21,27.65.17,41.48,0C407,92,408,93,408,96.26a299.24,299.24,0,0,1-1.8,34.4c-.45,3.93,1.09,5.15,4.94,5.48,15,1.29,30,3.39,44.92,5.47,12.82,1.78,25.75,2.78,38.56,4.56,8.19,1.14,16.51,1.35,24.57,3.55,11.9,3.25,17.12,11.68,18.23,21.5s-3.13,18.08-11.82,23.19c-10.38,6.11-21,11.81-31.67,17.42-1.76.92-2.91,2.72-5.21,2.63ZM351.74,181.54c.29-2,.25-3.26-2.25-3.53-11.51-1.21-23-3-34.52-3.79-3-.21-7.21-3.65-9.05.18-1.37,2.83,1.89,6.35,3,9.61.34,1.05.83,2.1,1.21,3.19a10.25,10.25,0,0,0,4.78,5.91c9.39,5.24,18.79,10.45,28.06,15.91,2.39,1.41,2.94.81,3.63-1.49C349.1,199,349.46,190,351.74,181.54Zm81,7.14c-10.44-1.44-19.59-2.66-28.72-4-1.83-.26-3.32.43-3.38,2-.27,7-3.18,13.68-2.68,21Zm-145,84.72a36.93,36.93,0,0,0,12.06,1.37c1.62-.11,3.95.51,4.63-1,.82-1.8-1.58-2.89-2.46-4.35-1.28-2.13-3-1.63-4.72-.78C294.34,270.08,291.46,271.54,287.73,273.4Z"/>
    <path class="cls-2" d="M351.74,181.54c-2.28,8.41-2.64,17.41-5.18,26-.69,2.3-1.24,2.9-3.63,1.49-9.27-5.46-18.67-10.67-28.06-15.91a10.25,10.25,0,0,1-4.78-5.91c-.38-1.09-.87-2.14-1.21-3.19-1.07-3.26-4.33-6.78-3-9.61,1.84-3.83,6.06-.39,9.05-.18,11.54.82,23,2.58,34.52,3.79C352,178.28,352,179.53,351.74,181.54Z"/>
    <path class="cls-2" d="M432.76,188.68,398,207.77c-.5-7.34,2.41-14,2.68-21,.06-1.61,1.55-2.3,3.38-2C413.17,186,422.32,187.24,432.76,188.68Z"/>
    <path class="cls-2" d="M287.73,273.4c3.73-1.86,6.61-3.32,9.51-4.74,1.73-.85,3.44-1.35,4.72.78.88,1.46,3.28,2.55,2.46,4.35-.68,1.49-3,.87-4.63,1A36.93,36.93,0,0,1,287.73,273.4Z"/>
  </g>
</svg>
