<?xml version="1.0" encoding="utf-8"?>
<!-- Generator: Adobe Illustrator 25.4.1, SVG Export Plug-In . SVG Version: 6.00 Build 0)  -->
<svg version="1.1" id="Layer_1" xmlns="http://www.w3.org/2000/svg" xmlns:xlink="http://www.w3.org/1999/xlink" x="0px" y="0px"
	 viewBox="0 0 500 201" style="enable-background:new 0 0 500 201;" xml:space="preserve">
<style type="text/css">
	.st0{fill:#1D1D1B;}
	.st1{fill:#FFC000;}
</style>
<path class="st0" d="M250.4,51c-27.3,0-49.5,22.2-49.5,49.5s22.2,49.5,49.5,49.5s49.5-22.2,49.5-49.5S277.8,51,250.4,51L250.4,51z
	 M274.9,95.5c-9,1-18.2-5.8-20.2-14.6c-0.3-1-0.3-2.1-0.3-3.1c-0.2-6.4,4.6-11.8,10.9-12.3c6.5-0.7,11.6,1.9,15.9,6.5
	c3,3.1,4.7,7.3,4.7,11.7C285.9,89.8,281.1,95,274.9,95.5L274.9,95.5z"/>
<rect x="180.2" y="97.4" class="st1" width="140.5" height="6.2"/>
<path class="st0" d="M152.2,61.7V45.5c0-4.8,3.9-8.7,8.7-8.7h16.2v-6H161c-8.1,0-14.7,6.6-14.7,14.7v16.2H152.2z"/>
<path class="st0" d="M152.2,155.5v-16.2h-6v16.2c0,8.1,6.6,14.7,14.7,14.7h16.2v-6H161C156.2,164.2,152.3,160.4,152.2,155.5
	C152.3,155.5,152.3,155.5,152.2,155.5z"/>
<path class="st0" d="M348.6,139.3v16.2c0,4.8-3.9,8.7-8.7,8.7h-16.2v6h16.2c8.1,0,14.7-6.6,14.7-14.7c0,0,0,0,0,0v-16.2H348.6z"/>
<path class="st0" d="M348.6,45.5v16.2h6V45.5c0-8.1-6.6-14.7-14.7-14.7l0,0h-16.2v6h16.2C344.7,36.8,348.6,40.7,348.6,45.5z"/>
</svg>
