<svg id="Layer_1" data-name="Layer 1" xmlns="http://www.w3.org/2000/svg" width="981.95" height="652.62" viewBox="0 0 981.95 652.62">
  <defs>
    <style>
      .cls-1 {
        fill: #1f1e1b;
      }

      .cls-2 {
        fill: #f9be16;
      }
    </style>
  </defs>
  <g>
    <path class="cls-1" d="M745.69,354.79c-1.55,17.88-4.15,35.55-9.27,52.83-12.42,42-34.81,77.55-67.15,107.08-32.59,29.76-70.67,48.37-113.82,56.55a227.24,227.24,0,0,1-66.7,2.44c-45.59-4.86-86.25-21.63-121.67-50.41-41.25-33.52-68.39-76.21-80.34-128.28A230.67,230.67,0,0,1,281,354c.17,0,.33,0,.5,0l459.38,0C742.53,354,744.23,353.71,745.69,354.79Z" transform="translate(-19.43 -13.66)"/>
    <path class="cls-1" d="M281.05,325.5c1.86-18.35,4.66-36.54,10.8-54,28-79.75,82.46-131.44,164.18-154.08,23.83-6.6,48.25-8.47,72.71-6.71,49.59,3.57,94,20.87,132.43,52.79Q719.43,212,738.63,285.29a212.69,212.69,0,0,1,6.45,40.37c-1.32.06-2.64.17-4,.17q-227.55,0-455.11,0C284.35,325.82,282.7,325.61,281.05,325.5Zm250.83-91.59a48.08,48.08,0,0,0,1.36,14.52c9.31,41.2,52.35,73.11,94.44,68.39,29.05-3.26,51.48-26.67,51.65-55.82.12-21.15-7.53-39.35-21.81-54.61-20.08-21.46-44.2-33.33-74.47-30.26C555,179,530.94,202.05,531.88,233.91Z" transform="translate(-19.43 -13.66)"/>
    <path class="cls-2" d="M281.05,325.5c1.65.11,3.3.32,4.95.32q227.56,0,455.11,0c1.33,0,2.65-.11,4-.17,1.76,1.4,3.83.8,5.76.81,28.68.06,57.35.15,86,0,3.89,0,5.18.95,4.93,4.91a136,136,0,0,0,0,16.89c.25,4.06-.88,5.27-5.11,5.25-28.51-.18-57-.08-85.53,0-1.85,0-4-.82-5.47,1.27-1.46-1.09-3.16-.84-4.81-.84L281.5,354c-.17,0-.33,0-.5,0-1.67-1.12-3.55-.55-5.32-.55-28.71,0-57.42-.15-86.13.09-4.54,0-5.66-1.24-5.37-5.53a130.55,130.55,0,0,0,0-16.9c-.23-3.83,1.06-4.65,4.73-4.63,28.87.15,57.75.1,86.63,0C277.37,326.52,279.53,327.49,281.05,325.5Z" transform="translate(-19.43 -13.66)"/>
    <path class="cls-1" d="M114.56,638c8.63,0,17.27.1,25.9-.05,2.89,0,4.09.55,4,3.8-.27,6.79-.22,13.6,0,20.4.08,2.92-.54,4-3.77,4-20.24-.31-40.59,1.23-60.7-1.21-25.19-3.06-42.8-17.55-54-40a60.43,60.43,0,0,1-6.14-27.69q.12-22.15-.25-44.3c-.06-3.41.87-4.62,4.39-4.5,6.63.22,13.28.17,19.91-.1,3.23-.14,3.83,1.09,3.8,4-.14,13.77.46,27.56-.18,41.31C46.4,617,65.21,638.89,92.15,638c7.46-.26,14.94,0,22.41,0Z" transform="translate(-19.43 -13.66)"/>
    <path class="cls-1" d="M910.5,666c-10.13,0-20.25-.1-30.38.06-2.79.05-3.68-.72-3.6-3.56.2-7,.26-13.94,0-20.9-.13-3.29,1.11-3.74,4-3.71,16.1.12,32.21.07,48.31.06,26.54,0,44.43-17.93,44.43-44.5,0-13.77.1-27.55-.07-41.32,0-3,.66-4,3.8-3.84,7,.3,13.95.3,20.92.18,2.58,0,3.34.69,3.32,3.31-.12,16.1.66,32.23-.23,48.27a69.35,69.35,0,0,1-59.12,64.76c-10.24,1.47-20.88.23-31.33.23Z" transform="translate(-19.43 -13.66)"/>
    <path class="cls-1" d="M111.31,41.77c-9,.66-20-1.19-30.81,1a41.46,41.46,0,0,0-32.79,39c-.24,8.78-.17,17.58,0,26.37,0,2.52-.53,3.5-3.26,3.44-7.3-.19-14.61-.06-21.91-.07-1.43,0-3.17.41-3.06-2,.7-16.59-2-33.57,4.48-49.53C34.1,35,52,19,79.28,14.91c15.81-2.37,31.79-.55,47.68-1,4.48-.13,9,.21,13.44-.11,3.45-.25,4.12,1.09,4,4.2-.22,6.46-.25,12.94,0,19.4.13,3.37-.65,4.6-4.29,4.49C131.17,41.58,122.2,41.77,111.31,41.77Z" transform="translate(-19.43 -13.66)"/>
    <path class="cls-1" d="M909.53,13.82c10.42.75,21.84-.56,33.27,1,25.83,3.49,51.23,27.28,56.38,52.87,2.74,13.62,1.64,27.34,2.05,41,.06,2.09-.47,2.9-2.73,2.86-7.46-.13-14.92-.15-22.38,0-2.55.06-3-.9-3-3.15.11-8.29.05-16.58,0-24.87,0-22.58-18.5-41.48-41-41.71q-25.62-.27-51.25,0c-3.33,0-4.64-.58-4.46-4.24.33-6.62.31-13.27,0-19.89-.16-3.46,1.12-4,4.19-4C890,13.94,899.26,13.82,909.53,13.82Z" transform="translate(-19.43 -13.66)"/>
  </g>
</svg>
